<mxfile host="65bd71144e">
    <diagram id="yL-rEVnqnpewwGLNH99c" name="Logic">
        <mxGraphModel dx="1621" dy="617" grid="1" gridSize="10" guides="1" tooltips="1" connect="1" arrows="1" fold="1" page="1" pageScale="1" pageWidth="850" pageHeight="1100" math="0" shadow="0">
            <root>
                <mxCell id="0"/>
                <mxCell id="1" parent="0"/>
                <mxCell id="30" value="" style="rounded=0;whiteSpace=wrap;html=1;shadow=0;sketch=0;" parent="1" vertex="1">
                    <mxGeometry x="-92.5" y="385" width="450" height="70" as="geometry"/>
                </mxCell>
                <mxCell id="14" style="edgeStyle=none;html=1;exitX=0.5;exitY=0;exitDx=0;exitDy=0;entryX=0.5;entryY=1;entryDx=0;entryDy=0;" parent="1" source="12" target="26" edge="1">
                    <mxGeometry relative="1" as="geometry"/>
                </mxCell>
                <mxCell id="21" style="edgeStyle=none;html=1;entryX=0.5;entryY=0;entryDx=0;entryDy=0;startArrow=none;" parent="1" source="36" target="17" edge="1">
                    <mxGeometry relative="1" as="geometry">
                        <Array as="points">
                            <mxPoint x="894" y="280"/>
                        </Array>
                    </mxGeometry>
                </mxCell>
                <mxCell id="29" style="edgeStyle=none;html=1;exitX=0;exitY=0.5;exitDx=0;exitDy=0;entryX=1;entryY=0.5;entryDx=0;entryDy=0;" parent="1" source="12" target="28" edge="1">
                    <mxGeometry relative="1" as="geometry"/>
                </mxCell>
                <mxCell id="46" style="edgeStyle=none;html=1;" parent="1" source="12" target="36" edge="1">
                    <mxGeometry relative="1" as="geometry"/>
                </mxCell>
                <mxCell id="12" value="" style="ellipse;whiteSpace=wrap;html=1;aspect=fixed;shadow=0;sketch=0;" parent="1" vertex="1">
                    <mxGeometry x="235" y="240" width="80" height="80" as="geometry"/>
                </mxCell>
                <mxCell id="13" value="ROOT-ROUTER" style="rounded=1;whiteSpace=wrap;html=1;shadow=0;sketch=0;" parent="1" vertex="1">
                    <mxGeometry x="220" y="40" width="110" height="30" as="geometry"/>
                </mxCell>
                <mxCell id="69" style="edgeStyle=none;html=1;entryX=1;entryY=0.25;entryDx=0;entryDy=0;" parent="1" target="16" edge="1">
                    <mxGeometry relative="1" as="geometry">
                        <mxPoint x="160" y="410" as="sourcePoint"/>
                    </mxGeometry>
                </mxCell>
                <mxCell id="15" value="SIGN-IN VIEW" style="rounded=1;whiteSpace=wrap;html=1;shadow=0;sketch=0;" parent="1" vertex="1">
                    <mxGeometry x="162.5" y="400" width="180" height="40" as="geometry"/>
                </mxCell>
                <mxCell id="70" style="edgeStyle=none;html=1;exitX=1;exitY=0.75;exitDx=0;exitDy=0;entryX=0;entryY=0.75;entryDx=0;entryDy=0;" parent="1" source="16" target="15" edge="1">
                    <mxGeometry relative="1" as="geometry"/>
                </mxCell>
                <mxCell id="16" value="LOG-IN VIEW" style="rounded=1;whiteSpace=wrap;html=1;shadow=0;sketch=0;" parent="1" vertex="1">
                    <mxGeometry x="-82.5" y="400" width="180" height="40" as="geometry"/>
                </mxCell>
                <mxCell id="24" style="edgeStyle=none;html=1;entryX=0.5;entryY=0;entryDx=0;entryDy=0;" parent="1" source="17" target="22" edge="1">
                    <mxGeometry relative="1" as="geometry"/>
                </mxCell>
                <mxCell id="17" value="ADMIN DAHSBOARD ROOT VIEW" style="rounded=1;whiteSpace=wrap;html=1;shadow=0;sketch=0;" parent="1" vertex="1">
                    <mxGeometry x="800" y="400" width="187.5" height="40" as="geometry"/>
                </mxCell>
                <mxCell id="52" style="edgeStyle=none;html=1;exitX=0.5;exitY=1;exitDx=0;exitDy=0;entryX=0.5;entryY=0;entryDx=0;entryDy=0;" parent="1" source="22" target="51" edge="1">
                    <mxGeometry relative="1" as="geometry"/>
                </mxCell>
                <mxCell id="22" value="CHILD-ROUTER" style="rounded=1;whiteSpace=wrap;html=1;shadow=0;sketch=0;arcSize=50;" parent="1" vertex="1">
                    <mxGeometry x="838.75" y="490" width="110" height="30" as="geometry"/>
                </mxCell>
                <mxCell id="27" style="edgeStyle=none;html=1;exitX=0.5;exitY=0;exitDx=0;exitDy=0;entryX=0.5;entryY=1;entryDx=0;entryDy=0;" parent="1" source="26" target="13" edge="1">
                    <mxGeometry relative="1" as="geometry"/>
                </mxCell>
                <mxCell id="26" value="LANDING PAGE VIEW" style="rounded=1;whiteSpace=wrap;html=1;shadow=0;sketch=0;" parent="1" vertex="1">
                    <mxGeometry x="185" y="140" width="180" height="40" as="geometry"/>
                </mxCell>
                <mxCell id="31" style="edgeStyle=none;html=1;exitX=0.5;exitY=1;exitDx=0;exitDy=0;" parent="1" source="28" target="30" edge="1">
                    <mxGeometry relative="1" as="geometry"/>
                </mxCell>
                <mxCell id="33" style="edgeStyle=none;html=1;exitX=0;exitY=0.5;exitDx=0;exitDy=0;entryX=0.5;entryY=0;entryDx=0;entryDy=0;" parent="1" source="28" target="32" edge="1">
                    <mxGeometry relative="1" as="geometry">
                        <Array as="points">
                            <mxPoint x="-245" y="280"/>
                        </Array>
                    </mxGeometry>
                </mxCell>
                <mxCell id="28" value="LOGGED IN?" style="rhombus;whiteSpace=wrap;html=1;shadow=0;sketch=0;" parent="1" vertex="1">
                    <mxGeometry x="80" y="230" width="105" height="100" as="geometry"/>
                </mxCell>
                <mxCell id="32" value="PROFILE ROOT VIEW" style="rounded=1;whiteSpace=wrap;html=1;shadow=0;sketch=0;" parent="1" vertex="1">
                    <mxGeometry x="-335" y="400" width="180" height="40" as="geometry"/>
                </mxCell>
                <mxCell id="34" value="NO" style="text;html=1;align=center;verticalAlign=middle;resizable=0;points=[];autosize=1;strokeColor=none;fillColor=none;" parent="1" vertex="1">
                    <mxGeometry x="97.5" y="340" width="30" height="20" as="geometry"/>
                </mxCell>
                <mxCell id="35" value="YES" style="text;html=1;align=center;verticalAlign=middle;resizable=0;points=[];autosize=1;strokeColor=none;fillColor=none;" parent="1" vertex="1">
                    <mxGeometry x="25" y="280" width="40" height="20" as="geometry"/>
                </mxCell>
                <mxCell id="50" style="edgeStyle=none;html=1;entryX=0.5;entryY=0;entryDx=0;entryDy=0;" parent="1" source="36" target="48" edge="1">
                    <mxGeometry relative="1" as="geometry"/>
                </mxCell>
                <mxCell id="36" value="PRIVILEGES?" style="rhombus;whiteSpace=wrap;html=1;shadow=0;sketch=0;" parent="1" vertex="1">
                    <mxGeometry x="523.75" y="230" width="100" height="100" as="geometry"/>
                </mxCell>
                <mxCell id="47" style="edgeStyle=none;html=1;entryX=0.5;entryY=0;entryDx=0;entryDy=0;" parent="1" source="48" target="49" edge="1">
                    <mxGeometry relative="1" as="geometry"/>
                </mxCell>
                <mxCell id="48" value="DAHSBOARD ROOT VIEW" style="rounded=1;whiteSpace=wrap;html=1;shadow=0;sketch=0;" parent="1" vertex="1">
                    <mxGeometry x="480" y="400" width="187.5" height="40" as="geometry"/>
                </mxCell>
                <mxCell id="54" style="edgeStyle=none;html=1;exitX=0.5;exitY=1;exitDx=0;exitDy=0;" parent="1" source="49" target="53" edge="1">
                    <mxGeometry relative="1" as="geometry"/>
                </mxCell>
                <mxCell id="49" value="CHILD-ROUTER" style="rounded=1;whiteSpace=wrap;html=1;shadow=0;sketch=0;arcSize=50;" parent="1" vertex="1">
                    <mxGeometry x="518.75" y="490" width="110" height="30" as="geometry"/>
                </mxCell>
                <mxCell id="90" style="edgeStyle=none;html=1;" parent="1" source="51" target="85" edge="1">
                    <mxGeometry relative="1" as="geometry"/>
                </mxCell>
                <mxCell id="92" style="edgeStyle=none;html=1;entryX=0.5;entryY=0;entryDx=0;entryDy=0;exitX=1;exitY=0.5;exitDx=0;exitDy=0;" parent="1" source="51" target="89" edge="1">
                    <mxGeometry relative="1" as="geometry">
                        <Array as="points">
                            <mxPoint x="1814" y="600"/>
                        </Array>
                    </mxGeometry>
                </mxCell>
                <mxCell id="93" style="edgeStyle=none;html=1;entryX=0.5;entryY=0;entryDx=0;entryDy=0;" parent="1" source="51" target="86" edge="1">
                    <mxGeometry relative="1" as="geometry">
                        <Array as="points">
                            <mxPoint x="1124" y="600"/>
                        </Array>
                    </mxGeometry>
                </mxCell>
                <mxCell id="94" style="edgeStyle=none;html=1;entryX=0.5;entryY=0;entryDx=0;entryDy=0;" parent="1" source="51" target="87" edge="1">
                    <mxGeometry relative="1" as="geometry">
                        <Array as="points">
                            <mxPoint x="1354" y="600"/>
                        </Array>
                    </mxGeometry>
                </mxCell>
                <mxCell id="95" style="edgeStyle=none;html=1;entryX=0.5;entryY=0;entryDx=0;entryDy=0;" parent="1" source="51" target="88" edge="1">
                    <mxGeometry relative="1" as="geometry">
                        <Array as="points">
                            <mxPoint x="1584" y="600"/>
                        </Array>
                    </mxGeometry>
                </mxCell>
                <mxCell id="51" value="" style="ellipse;whiteSpace=wrap;html=1;aspect=fixed;shadow=0;sketch=0;" parent="1" vertex="1">
                    <mxGeometry x="853.75" y="560" width="80" height="80" as="geometry"/>
                </mxCell>
                <mxCell id="59" style="edgeStyle=none;html=1;entryX=1;entryY=0.5;entryDx=0;entryDy=0;" parent="1" source="53" target="55" edge="1">
                    <mxGeometry relative="1" as="geometry"/>
                </mxCell>
                <mxCell id="53" value="BOARDS ROOT VIEW" style="rounded=1;whiteSpace=wrap;html=1;shadow=0;sketch=0;" parent="1" vertex="1">
                    <mxGeometry x="480" y="580" width="187.5" height="40" as="geometry"/>
                </mxCell>
                <mxCell id="58" style="edgeStyle=none;html=1;" parent="1" source="55" target="57" edge="1">
                    <mxGeometry relative="1" as="geometry"/>
                </mxCell>
                <mxCell id="55" value="CHILD-ROUTER" style="rounded=1;whiteSpace=wrap;html=1;shadow=0;sketch=0;arcSize=50;" parent="1" vertex="1">
                    <mxGeometry x="288.75" y="586" width="110" height="30" as="geometry"/>
                </mxCell>
                <mxCell id="61" style="edgeStyle=none;html=1;entryX=1;entryY=0.5;entryDx=0;entryDy=0;" parent="1" source="57" target="60" edge="1">
                    <mxGeometry relative="1" as="geometry"/>
                </mxCell>
                <mxCell id="57" value="CHANNELS ROOT VIEW" style="rounded=1;whiteSpace=wrap;html=1;shadow=0;sketch=0;" parent="1" vertex="1">
                    <mxGeometry x="250" y="656" width="187.5" height="40" as="geometry"/>
                </mxCell>
                <mxCell id="65" style="edgeStyle=none;html=1;" parent="1" source="60" target="64" edge="1">
                    <mxGeometry relative="1" as="geometry"/>
                </mxCell>
                <mxCell id="60" value="CHILD-ROUTER" style="rounded=1;whiteSpace=wrap;html=1;shadow=0;sketch=0;arcSize=50;" parent="1" vertex="1">
                    <mxGeometry x="65" y="661" width="110" height="30" as="geometry"/>
                </mxCell>
                <mxCell id="81" style="edgeStyle=none;html=1;entryX=0;entryY=0.5;entryDx=0;entryDy=0;" parent="1" source="64" target="66" edge="1">
                    <mxGeometry relative="1" as="geometry"/>
                </mxCell>
                <mxCell id="82" style="edgeStyle=none;html=1;" parent="1" source="64" target="80" edge="1">
                    <mxGeometry relative="1" as="geometry"/>
                </mxCell>
                <mxCell id="64" value="ARTICLES ROOT VIEW" style="rounded=1;whiteSpace=wrap;html=1;shadow=0;sketch=0;" parent="1" vertex="1">
                    <mxGeometry x="25" y="790" width="187.5" height="40" as="geometry"/>
                </mxCell>
                <mxCell id="72" style="edgeStyle=none;html=1;" parent="1" source="66" target="71" edge="1">
                    <mxGeometry relative="1" as="geometry"/>
                </mxCell>
                <mxCell id="66" value="IS VERIFIED?" style="rhombus;whiteSpace=wrap;html=1;" parent="1" vertex="1">
                    <mxGeometry x="328.75" y="760" width="100" height="100" as="geometry"/>
                </mxCell>
                <mxCell id="74" style="edgeStyle=none;html=1;entryX=0.5;entryY=0;entryDx=0;entryDy=0;" parent="1" source="71" target="73" edge="1">
                    <mxGeometry relative="1" as="geometry"/>
                </mxCell>
                <mxCell id="71" value="CREATE ARTICLE ROOT VIEW" style="rounded=1;whiteSpace=wrap;html=1;shadow=0;sketch=0;" parent="1" vertex="1">
                    <mxGeometry x="283.75" y="900" width="187.5" height="40" as="geometry"/>
                </mxCell>
                <mxCell id="77" style="edgeStyle=none;html=1;entryX=0.5;entryY=0;entryDx=0;entryDy=0;" parent="1" source="73" target="75" edge="1">
                    <mxGeometry relative="1" as="geometry">
                        <Array as="points">
                            <mxPoint x="511.75" y="1020"/>
                        </Array>
                    </mxGeometry>
                </mxCell>
                <mxCell id="78" style="edgeStyle=none;html=1;entryX=0.5;entryY=0;entryDx=0;entryDy=0;" parent="1" source="73" target="76" edge="1">
                    <mxGeometry relative="1" as="geometry">
                        <Array as="points">
                            <mxPoint x="243.75" y="1020"/>
                        </Array>
                    </mxGeometry>
                </mxCell>
                <mxCell id="73" value="" style="ellipse;whiteSpace=wrap;html=1;aspect=fixed;shadow=0;sketch=0;" parent="1" vertex="1">
                    <mxGeometry x="337.5" y="980" width="80" height="80" as="geometry"/>
                </mxCell>
                <mxCell id="75" value="EDIT POST VIEW" style="rounded=1;whiteSpace=wrap;html=1;shadow=0;sketch=0;" parent="1" vertex="1">
                    <mxGeometry x="417.5" y="1070" width="187.5" height="40" as="geometry"/>
                </mxCell>
                <mxCell id="76" value="PREVIEW POST VIEW" style="rounded=1;whiteSpace=wrap;html=1;shadow=0;sketch=0;" parent="1" vertex="1">
                    <mxGeometry x="150" y="1070" width="187.5" height="40" as="geometry"/>
                </mxCell>
                <mxCell id="79" value="YES" style="text;html=1;align=center;verticalAlign=middle;resizable=0;points=[];autosize=1;strokeColor=none;fillColor=none;" parent="1" vertex="1">
                    <mxGeometry x="377.5" y="870" width="40" height="20" as="geometry"/>
                </mxCell>
                <mxCell id="84" style="edgeStyle=none;html=1;" parent="1" source="80" target="83" edge="1">
                    <mxGeometry relative="1" as="geometry"/>
                </mxCell>
                <mxCell id="80" value="CHILD-ROUTER" style="rounded=1;whiteSpace=wrap;html=1;shadow=0;sketch=0;arcSize=50;" parent="1" vertex="1">
                    <mxGeometry x="-202.5" y="795" width="110" height="30" as="geometry"/>
                </mxCell>
                <mxCell id="83" value="ARTICLE VIEW" style="rounded=1;whiteSpace=wrap;html=1;shadow=0;sketch=0;" parent="1" vertex="1">
                    <mxGeometry x="-241.25" y="870" width="187.5" height="40" as="geometry"/>
                </mxCell>
                <mxCell id="97" style="edgeStyle=none;html=1;" parent="1" source="85" target="96" edge="1">
                    <mxGeometry relative="1" as="geometry"/>
                </mxCell>
                <mxCell id="85" value="HOME ROOT&amp;nbsp;VIEW" style="rounded=1;whiteSpace=wrap;html=1;shadow=0;sketch=0;" parent="1" vertex="1">
                    <mxGeometry x="800" y="696" width="187.5" height="40" as="geometry"/>
                </mxCell>
                <mxCell id="101" style="edgeStyle=none;html=1;entryX=0.5;entryY=0;entryDx=0;entryDy=0;" parent="1" source="86" target="100" edge="1">
                    <mxGeometry relative="1" as="geometry"/>
                </mxCell>
                <mxCell id="86" value="TOPICS ROOT VIEW" style="rounded=1;whiteSpace=wrap;html=1;shadow=0;sketch=0;" parent="1" vertex="1">
                    <mxGeometry x="1030" y="696" width="187.5" height="40" as="geometry"/>
                </mxCell>
                <mxCell id="87" value="USERS VIEW" style="rounded=1;whiteSpace=wrap;html=1;shadow=0;sketch=0;" parent="1" vertex="1">
                    <mxGeometry x="1260" y="696" width="187.5" height="40" as="geometry"/>
                </mxCell>
                <mxCell id="88" value="REPORTS VIEW" style="rounded=1;whiteSpace=wrap;html=1;shadow=0;sketch=0;" parent="1" vertex="1">
                    <mxGeometry x="1490" y="696" width="187.5" height="40" as="geometry"/>
                </mxCell>
                <mxCell id="89" value="CMS VIEW" style="rounded=1;whiteSpace=wrap;html=1;shadow=0;sketch=0;" parent="1" vertex="1">
                    <mxGeometry x="1720" y="696" width="187.5" height="40" as="geometry"/>
                </mxCell>
                <mxCell id="99" style="edgeStyle=none;html=1;" parent="1" source="96" target="98" edge="1">
                    <mxGeometry relative="1" as="geometry"/>
                </mxCell>
                <mxCell id="96" value="CHILD-ROUTER" style="rounded=1;whiteSpace=wrap;html=1;shadow=0;sketch=0;arcSize=50;" parent="1" vertex="1">
                    <mxGeometry x="838.75" y="780" width="110" height="30" as="geometry"/>
                </mxCell>
                <mxCell id="98" value="NEWS VIEW" style="rounded=1;whiteSpace=wrap;html=1;shadow=0;sketch=0;" parent="1" vertex="1">
                    <mxGeometry x="800" y="850" width="187.5" height="40" as="geometry"/>
                </mxCell>
                <mxCell id="103" style="edgeStyle=none;html=1;entryX=0.5;entryY=0;entryDx=0;entryDy=0;" parent="1" source="100" target="102" edge="1">
                    <mxGeometry relative="1" as="geometry"/>
                </mxCell>
                <mxCell id="100" value="CHILD-ROUTER" style="rounded=1;whiteSpace=wrap;html=1;shadow=0;sketch=0;arcSize=50;" parent="1" vertex="1">
                    <mxGeometry x="1068.75" y="780" width="110" height="30" as="geometry"/>
                </mxCell>
                <mxCell id="110" style="edgeStyle=none;html=1;entryX=0;entryY=0.5;entryDx=0;entryDy=0;" parent="1" source="102" target="109" edge="1">
                    <mxGeometry relative="1" as="geometry">
                        <Array as="points">
                            <mxPoint x="1124" y="1140"/>
                        </Array>
                    </mxGeometry>
                </mxCell>
                <mxCell id="111" style="edgeStyle=none;html=1;entryX=0;entryY=0.5;entryDx=0;entryDy=0;" parent="1" source="102" target="107" edge="1">
                    <mxGeometry relative="1" as="geometry">
                        <Array as="points">
                            <mxPoint x="1124" y="980"/>
                        </Array>
                    </mxGeometry>
                </mxCell>
                <mxCell id="112" style="edgeStyle=none;html=1;entryX=0;entryY=0.5;entryDx=0;entryDy=0;" parent="1" source="102" target="108" edge="1">
                    <mxGeometry relative="1" as="geometry">
                        <Array as="points">
                            <mxPoint x="1124" y="1060"/>
                        </Array>
                    </mxGeometry>
                </mxCell>
                <mxCell id="102" value="" style="ellipse;whiteSpace=wrap;html=1;aspect=fixed;shadow=0;sketch=0;" parent="1" vertex="1">
                    <mxGeometry x="1083.75" y="840" width="80" height="80" as="geometry"/>
                </mxCell>
                <mxCell id="104" value="NO" style="text;html=1;align=center;verticalAlign=middle;resizable=0;points=[];autosize=1;strokeColor=none;fillColor=none;" parent="1" vertex="1">
                    <mxGeometry x="575" y="330" width="30" height="20" as="geometry"/>
                </mxCell>
                <mxCell id="105" value="YES" style="text;html=1;align=center;verticalAlign=middle;resizable=0;points=[];autosize=1;strokeColor=none;fillColor=none;" parent="1" vertex="1">
                    <mxGeometry x="628.75" y="260" width="40" height="20" as="geometry"/>
                </mxCell>
                <mxCell id="116" style="edgeStyle=none;html=1;" parent="1" source="107" edge="1">
                    <mxGeometry relative="1" as="geometry">
                        <mxPoint x="1420" y="1060" as="targetPoint"/>
                        <Array as="points">
                            <mxPoint x="1400" y="980"/>
                            <mxPoint x="1400" y="1060"/>
                        </Array>
                    </mxGeometry>
                </mxCell>
                <mxCell id="107" value="BOARDS VIEW" style="rounded=1;whiteSpace=wrap;html=1;shadow=0;sketch=0;" parent="1" vertex="1">
                    <mxGeometry x="1160" y="960" width="187.5" height="40" as="geometry"/>
                </mxCell>
                <mxCell id="115" style="edgeStyle=none;html=1;entryX=0;entryY=0.5;entryDx=0;entryDy=0;" parent="1" source="108" target="113" edge="1">
                    <mxGeometry relative="1" as="geometry"/>
                </mxCell>
                <mxCell id="108" value="CHANNELS VIEW" style="rounded=1;whiteSpace=wrap;html=1;shadow=0;sketch=0;" parent="1" vertex="1">
                    <mxGeometry x="1160" y="1040" width="187.5" height="40" as="geometry"/>
                </mxCell>
                <mxCell id="114" style="edgeStyle=none;html=1;entryX=0;entryY=0.5;entryDx=0;entryDy=0;" parent="1" source="109" target="113" edge="1">
                    <mxGeometry relative="1" as="geometry">
                        <mxPoint x="1379.9999999999995" y="1140" as="targetPoint"/>
                        <Array as="points">
                            <mxPoint x="1400" y="1140"/>
                            <mxPoint x="1400" y="1060"/>
                        </Array>
                    </mxGeometry>
                </mxCell>
                <mxCell id="109" value="ARTICLES VIEW" style="rounded=1;whiteSpace=wrap;html=1;shadow=0;sketch=0;" parent="1" vertex="1">
                    <mxGeometry x="1160" y="1120" width="187.5" height="40" as="geometry"/>
                </mxCell>
                <mxCell id="118" style="edgeStyle=none;html=1;" parent="1" source="113" target="117" edge="1">
                    <mxGeometry relative="1" as="geometry"/>
                </mxCell>
                <mxCell id="113" value="CHILD-COMPONENT-ROUTER" style="rounded=1;whiteSpace=wrap;html=1;shadow=0;sketch=0;arcSize=50;" parent="1" vertex="1">
                    <mxGeometry x="1420" y="1045" width="200" height="30" as="geometry"/>
                </mxCell>
                <mxCell id="117" value="EDIT VIEW" style="rounded=1;whiteSpace=wrap;html=1;shadow=0;sketch=0;" parent="1" vertex="1">
                    <mxGeometry x="1670" y="1040" width="187.5" height="40" as="geometry"/>
                </mxCell>
            </root>
        </mxGraphModel>
    </diagram>
</mxfile>